<?xml version="1.0" encoding="utf-8"?>
<!-- Generator: Adobe Illustrator 16.0.0, SVG Export Plug-In . SVG Version: 6.00 Build 0)  -->
<!DOCTYPE svg PUBLIC "-//W3C//DTD SVG 1.1//EN" "http://www.w3.org/Graphics/SVG/1.1/DTD/svg11.dtd">
<svg version="1.1" id="Layer_1" xmlns="http://www.w3.org/2000/svg" xmlns:xlink="http://www.w3.org/1999/xlink" x="0px" y="0px"
	 width="50.048px" height="44.955px" viewBox="0 0 50.048 44.955" enable-background="new 0 0 50.048 44.955" xml:space="preserve">
<path fill="#B8D5E4" d="M24.888,13.683c0,1.54,0.21,3.01,0.59,4.35c-2.46,0.02-4.79,0.47-6.87,1.29c-0.61-1.29-1.13-2.74-1.5-4.31
	c-1.52-6.34,0-12.89,3.11-14.05c7.27-2.71,9.59-1.28,10.43,1.61C27.328,3.913,24.888,8.373,24.888,13.683z"/>
<path fill="#B8D5E4" d="M31.258,18.543c-0.31,0.9-0.71,1.75-1.159,2.52c-0.431,0.74-0.91,1.41-1.41,1.98
	c-0.971,1.1-2.03,1.84-2.99,2.07c-2.43,0.58-5.22-1.84-7.09-5.791c2.44-0.96,5.23-1.41,8.17-1.26c0.61,0.04,1.22,0.1,1.84,0.19
	c0.27,0.04,0.54,0.07,0.82,0.1c-0.28-2.17-0.08-4.79,0.66-7.49c0.299-1.1,0.689-2.17,1.139-3.17c0.08,1.26,0.191,2.52,0.471,3.7
	C32.298,13.853,32.008,16.363,31.258,18.543z"/>
<path d="M50.048,29.624c-2.05,0-3.01,3.26-4.09,6.939c-0.3,1.03-3.41,5.17-6.529,6.45c3.09-2.19,5.549-6,6.029-9.351
	c0.18-1.229,0.029-2.92-0.35-4.68c-0.561,2.65-2.59,5.03-5.601,6.85c-0.56,2.861-1.569,5.421-2.92,7.5
	c-3.43-0.26-6.479-1.75-8.649-3.989c-0.11-0.12-0.221-0.24-0.331-0.36c-1.88-2.09-3-4.77-3-7.709c0-2.381,0.65-4.58,1.82-6.431h0.01
	c0.57-0.91,1.26-1.72,2.07-2.44c0.44-0.39,0.921-0.76,1.431-1.08c0.119-0.08,0.24-0.16,0.369-0.23c1.881-1.11,4.141-1.75,6.67-1.75
	c0.09,0,0.19,0,0.28,0.01c0.421,0.01,0.83,0.06,1.22,0.15c1.42,0.28,2.66,0.92,3.631,1.55c0.01,0,0.01,0.01,0.01,0.01
	c0.77,0.49,1.38,0.971,1.75,1.25c0.22,0.141,0.55,0.58,0.949,1.19c1.381,2.09,3.57,6.12,5.15,6.12H50.048z"/>
<path fill="#F5D76E" d="M29.458,29.403c0,3.521-0.67,6.801-1.85,9.58c-0.05,0.131-0.11,0.271-0.18,0.4
	c-0.81,0.061-1.63,0.09-2.47,0.09c-4.91,0-9.41-1.029-12.92-2.75c-1.54-2.359-2.25-5.061-1.86-7.8c0.18-1.22,0.55-2.36,1.11-3.42
	c0.88-1.681,2.2-3.14,3.84-4.32c0.96-0.68,2.02-1.27,3.17-1.74c0.1-0.04,0.2-0.08,0.31-0.12c0.52-0.2,1.06-0.39,1.6-0.54
	c0.28-0.08,0.56-0.16,0.84-0.22c0.28-0.07,0.56-0.13,0.85-0.18c0.12-0.03,0.24-0.05,0.36-0.06c0.21-0.04,0.41-0.07,0.63-0.1
	c0.29-0.04,0.6-0.08,0.9-0.11c0.56-0.05,1.12-0.08,1.69-0.08c0.43,0,0.86,0.01,1.3,0.03c0.51,0.95,0.959,1.98,1.331,3.08
	c0.149,0.41,0.289,0.83,0.399,1.26c0.07,0.211,0.13,0.42,0.181,0.641c0.049,0.21,0.1,0.42,0.149,0.64
	C29.237,25.483,29.458,27.403,29.458,29.403z"/>
<path fill="#F5D76E" d="M45.108,28.983c-0.561,2.65-2.59,5.03-5.601,6.85c0.31-1.6,0.479-3.299,0.479-5.049
	c0-3.271-0.579-6.34-1.6-8.98c-0.33-0.87-0.709-1.69-1.13-2.45c-0.03-0.06-0.06-0.11-0.09-0.17c0.45,0.09,0.89,0.19,1.31,0.32
	c1.521,0.43,2.82,1.11,3.73,2.28c0.25,0.31,0.49,0.68,0.721,1.09C43.858,24.503,44.658,26.793,45.108,28.983z"/>
<path fill="#DCBE5B" d="M27.428,39.383c-0.83,1.9-1.91,3.54-3.16,4.85c-2.13-0.369-4.12-1.039-5.88-1.949
	c-0.88-0.451-1.71-0.961-2.47-1.521c-0.42-0.31-0.82-0.63-1.19-0.96c-0.39-0.34-0.76-0.689-1.1-1.061
	c-0.6-0.64-1.13-1.319-1.59-2.02c3.51,1.721,8.01,2.75,12.92,2.75C25.798,39.473,26.618,39.444,27.428,39.383z"/>
<path fill="#DCBE5B" d="M45.458,33.663c-0.48,3.351-2.939,7.16-6.029,9.351c0,0,0,0-0.011,0c-0.47,0.34-0.96,0.64-1.46,0.89
	c-0.68,0.351-1.46,0.59-2.32,0.75c0.33-0.41,0.65-0.859,0.95-1.32c1.351-2.079,2.36-4.639,2.92-7.5
	c3.011-1.819,5.04-4.199,5.601-6.85C45.487,30.743,45.638,32.433,45.458,33.663z"/>
<path d="M21.833,29.971c0,2.434-0.632,5.717-2,7.312c-1.369,1.594-3.474,1.5-5.562,1.5c-4.177,0-7.562-3.945-7.562-8.812
	s3.386-8.813,7.562-8.813c2.088,0,4.944,0.28,6.312,1.875C21.951,24.627,21.833,27.538,21.833,29.971z"/>
<path d="M39.987,30.784c0,5.569-1.689,10.549-4.35,13.869c-3.199,0.631-7.41,0.15-10.75-0.32c-0.21-0.029-0.42-0.059-0.62-0.1
	c3.14-3.279,5.19-8.699,5.19-14.83c0-2-0.221-3.92-0.62-5.72c-0.05-0.22-0.101-0.43-0.149-0.64c-0.461-1.82-1.121-3.5-1.911-4.98
	c0.61,0.04,1.22,0.1,1.84,0.19c0.27,0.04,0.54,0.07,0.82,0.1c0.6,0.08,1.209,0.13,1.819,0.19c2.05,0.17,4.091,0.28,5.91,0.64
	c0.44,0.79,0.84,1.64,1.19,2.54c0.09,0.22,0.17,0.439,0.25,0.67C39.487,24.903,39.987,27.763,39.987,30.784z"/>
<g>
	<g>
		<path d="M12.038,23.813c0.191-2.974-1.697-5.671-4.569-6.446c-2.786-0.751-5.973,0.673-6.966,3.387
			c-0.397,1.087,2.528,0.728,2.91-0.316c0.633-1.73,2.218-1.654,3.59-0.824c1.426,0.863,2.228,2.92,2.125,4.516
			C9.044,25.43,11.969,24.891,12.038,23.813L12.038,23.813z"/>
	</g>
</g>
<g>
	<g>
		<path d="M16.218,22.723c0.213-2.145,0.602-5.273,2.871-6.232c0.333-0.141,1.238-0.673,0.778-1.146
			c-0.449-0.46-1.414-0.231-1.916-0.019c-3.271,1.383-4.301,4.463-4.629,7.769C13.208,24.246,16.123,23.685,16.218,22.723
			L16.218,22.723z"/>
	</g>
</g>
<path fill="#B8D5E4" d="M44.647,14.703c-0.939,3.44-3.449,6.12-6.039,7.69c-0.45,0.27-0.91,0.51-1.36,0.721
	c-1.69,0.77-3.31,1.049-4.46,0.729c-1.189-0.33-2.1-1.33-2.689-2.78c-0.32-0.78-0.541-1.7-0.66-2.71c-0.28-2.17-0.08-4.79,0.66-7.49
	c0.299-1.1,0.689-2.17,1.139-3.17c0.921-2.06,2.111-3.85,3.391-5.19c1.641-1.73,3.43-2.7,4.96-2.47
	C53.728,2.093,46.368,8.403,44.647,14.703z"/>
<path fill="#A7C0C9" d="M30.099,10.863c-0.74,2.7-0.94,5.32-0.66,7.49c-0.28-0.03-0.551-0.06-0.82-0.1
	c-0.62-0.09-1.23-0.15-1.84-0.19c-0.44-0.02-0.87-0.03-1.3-0.03c-0.38-1.34-0.59-2.81-0.59-4.35c0-5.31,2.44-9.77,5.759-11.11
	c0.42,1.45,0.471,3.27,0.59,5.12C30.788,8.693,30.397,9.763,30.099,10.863z"/>
</svg>
