<?xml version="1.0" encoding="utf-8"?>
<!-- Generator: Adobe Illustrator 16.0.0, SVG Export Plug-In . SVG Version: 6.00 Build 0)  -->
<!DOCTYPE svg PUBLIC "-//W3C//DTD SVG 1.1//EN" "http://www.w3.org/Graphics/SVG/1.1/DTD/svg11.dtd">
<svg version="1.1" xmlns="http://www.w3.org/2000/svg" xmlns:xlink="http://www.w3.org/1999/xlink" x="0px" y="0px"
	 width="598.333px" height="174px" viewBox="0 0 598.333 174" enable-background="new 0 0 598.333 174" xml:space="preserve">
<g id="Layer_1">
</g>
<g id="Layer_2">
	<g>
		<path d="M173.1,88.414c-1.85-2.14-4.33-3.54-7.45-4.22c0.86-0.38,1.46-0.66,1.8-0.82c0.34-0.17,0.96-0.59,1.87-1.26
			c1.05-0.81,1.88-1.79,2.48-2.96l-0.47-1.45c0.4-0.13,0.81-0.27,1.22-0.42c0.35-1.18,0.52-2.5,0.52-3.96
			c0-3.26-1.16-6.19-3.46-8.78c-1.2-1.39-3.04-2.5-5.51-3.31c-2.47-0.82-5.41-1.23-8.82-1.23H135.7v50.33h22.03
			c6.86,0,11.71-1.56,14.54-4.68c2.4-2.69,3.6-5.78,3.6-9.29C175.87,93.193,174.95,90.543,173.1,88.414z M144.19,67.854h10.88
			c3.12,0,5.42,0.53,6.91,1.58c1.49,1.06,2.23,2.79,2.23,5.19c0,4.17-3.07,6.26-9.22,6.26h-10.8V67.854z M160.18,82.523
			c-1.63,0.29-3.31,0.53-5,0.74l-0.24-1.99c1.66-0.2,3.3-0.44,4.89-0.72L160.18,82.523z M140.67,84.083c-0.86,0-1.73,0-2.6-0.02
			l0.04-2c1.66,0.03,3.31,0.03,4.96,0l0.04,2C142.3,84.083,141.48,84.083,140.67,84.083z M164.68,101.014
			c-1.66,0.98-4.05,1.47-7.17,1.47h-13.32v-13.75h12.24c7.16,0,10.73,2.23,10.73,6.7C167.16,98.164,166.33,100.023,164.68,101.014z"
			/>
		<path d="M221.018,94.709h-30.024c0.191,2.784,1.463,5.029,3.816,6.732c2.351,1.705,5.04,2.556,8.064,2.556
			c4.799,0,8.447-1.512,10.945-4.536l4.607,5.04c-4.129,4.273-9.504,6.408-16.128,6.408c-5.376,0-9.948-1.788-13.716-5.364
			c-3.769-3.575-5.652-8.375-5.652-14.4c0-6.023,1.919-10.811,5.76-14.364c3.839-3.552,8.363-5.328,13.572-5.328
			c5.208,0,9.635,1.573,13.284,4.716c3.648,3.145,5.473,7.477,5.473,12.996V94.709z M190.994,88.374h21.959
			c0-3.215-1.008-5.688-3.024-7.416c-2.016-1.728-4.5-2.592-7.452-2.592c-2.952,0-5.605,0.9-7.956,2.7
			C192.169,82.866,190.994,85.302,190.994,88.374z"/>
		<path d="M265.51,89.164c0-3.97-0.94-7.32-2.84-10.06c-1.01,0.83-2.02,1.68-2.99,2.52l-1.31-1.51c1-0.86,2.03-1.73,3.07-2.57
			c-0.43-0.48-0.9-0.94-1.4-1.37c-3.65-3.15-8.07-4.72-13.28-4.72c-5.21,0-9.74,1.78-13.57,5.33c-3.84,3.55-5.76,8.34-5.76,14.36
			c0,6.03,1.88,10.83,5.65,14.4c3.77,3.58,8.34,5.37,13.71,5.37c6.63,0,12-2.14,16.13-6.41l-4.61-5.04
			c-2.49,3.02-6.14,4.53-10.94,4.53c-3.02,0-5.71-0.85-8.06-2.55c-2.36-1.71-3.63-3.95-3.82-6.73h30.02V89.164z M239.09,102.043
			l1.7,1.05c-0.88,1.43-1.7,2.87-2.43,4.28l-1.78-0.91C237.33,105.003,238.18,103.514,239.09,102.043z M247.79,93.543l-1.53-1.29
			c1.07-1.25,2.2-2.52,3.37-3.77l1.46,1.37C249.94,91.074,248.83,92.324,247.79,93.543z M235.49,88.374c0-3.07,1.18-5.51,3.53-7.31
			s5-2.7,7.95-2.7c2.96,0,5.44,0.87,7.46,2.59c2.01,1.73,3.02,4.2,3.02,7.42H235.49z"/>
		<path d="M332.977,60.005h8.496v50.328h-9.217l-28.511-36.72v36.72h-8.496V60.005h8.496l29.232,37.584V60.005z"/>
		<path d="M389.93,89.164c0-5.52-1.83-9.85-5.47-12.99c-3.65-3.15-8.08-4.72-13.29-4.72s-9.729,1.78-13.57,5.33
			c-3.84,3.55-5.76,8.34-5.76,14.36c0,3.86,0.771,7.22,2.311,10.06c0.1-0.52,0.189-1.05,0.279-1.58l1.98,0.33
			c-0.19,1.14-0.41,2.26-0.65,3.34c-0.02,0.09-0.04,0.18-0.06,0.27c0.53,0.7,1.13,1.36,1.79,1.98c3.77,3.58,8.34,5.37,13.72,5.37
			c6.62,0,12-2.14,16.13-6.41l-4.609-5.04c-2.5,3.02-6.15,4.53-10.94,4.53c-3.03,0-5.72-0.85-8.07-2.55
			c-2.35-1.71-3.62-3.95-3.819-6.73h30.029V89.164z M357.51,87.874l-2-0.05c0.01-0.78,0.021-1.57,0.021-2.37
			c0-0.85-0.011-1.72-0.03-2.58l2-0.05c0.02,0.88,0.03,1.76,0.03,2.63C357.53,86.264,357.52,87.074,357.51,87.874z M359.9,88.374
			c0-3.07,1.18-5.51,3.529-7.31c2.351-1.8,5.011-2.7,7.96-2.7c2.95,0,5.431,0.87,7.45,2.59c2.021,1.73,3.03,4.2,3.03,7.42H359.9z"/>
		<path d="M448.97,72.034l-9.51,28.94l-5.54-16.87l-0.32-0.98l-3.64-11.09h-8.35l-9.511,28.94l-9.5-28.94h-8.35l13.25,38.3h9.21
			l9.07-26.21l9.08,26.21h9.21l13.25-38.3H448.97z M447.09,90.144c-0.77-0.26-1.54-0.51-2.3-0.76l0.63-1.9
			c0.76,0.25,1.521,0.5,2.29,0.75c0.771,0.25,1.58,0.49,2.43,0.72l-0.52,1.93C448.74,90.644,447.9,90.403,447.09,90.144z"/>
		<path d="M487.56,90.824c-1.3-0.87-2.51-1.54-3.64-2.02s-2.29-0.91-3.49-1.29c-1.199-0.39-2.58-0.77-4.14-1.16
			c-1.56-0.38-2.771-0.79-3.63-1.22c-1.25-0.58-1.88-1.49-1.88-2.74c0-1.39,0.6-2.43,1.8-3.13c1.2-0.69,2.76-1.04,4.68-1.04
			c3.65,0,7.03,1.03,10.16,3.09l3.021-5.97c-3.94-2.59-8.11-3.89-12.53-3.89s-8,1.07-10.76,3.2c-2.761,2.14-4.141,4.98-4.141,8.54
			c0,5.04,3.98,8.64,11.95,10.8c0.19,0.04,0.48,0.14,0.86,0.28c5.09,1.54,7.64,3.27,7.64,5.19c0,1.29-0.53,2.36-1.59,3.2
			c-1.061,0.84-2.49,1.26-4.32,1.26c-4.17,0-8.5-1.68-12.96-5.04l-3.89,6.27c2.31,1.82,4.96,3.24,7.96,4.24
			c3,1.01,5.89,1.52,8.68,1.52c4.12,0,7.51-1.1,10.15-3.28c2.64-2.18,3.96-5.1,3.96-8.75C491.45,95.233,490.15,92.554,487.56,90.824
			z M483.53,95.054c-1.69-0.08-3.36-0.17-5.011-0.26l0.12-2c1.641,0.1,3.301,0.18,4.98,0.26L483.53,95.054z"/>
	</g>
</g>
<g id="Layer_3">
	<path fill="#B8D5E4" d="M51.18,54.733c0,1.54,0.21,3.01,0.59,4.35c-2.46,0.02-4.79,0.47-6.87,1.29c-0.61-1.29-1.13-2.74-1.5-4.31
		c-1.52-6.34,0-12.89,3.11-14.05c7.27-2.71,9.59-1.28,10.43,1.61C53.62,44.963,51.18,49.423,51.18,54.733z"/>
	<path fill="#B8D5E4" d="M57.55,59.593c-0.31,0.9-0.71,1.75-1.16,2.52c-0.43,0.74-0.91,1.41-1.41,1.98
		c-0.97,1.1-2.03,1.84-2.99,2.07c-2.43,0.58-5.22-1.84-7.09-5.79c2.44-0.96,5.23-1.41,8.17-1.26c0.61,0.04,1.22,0.1,1.84,0.19
		c0.27,0.04,0.54,0.07,0.82,0.1c-0.28-2.17-0.08-4.79,0.66-7.49c0.3-1.1,0.69-2.17,1.14-3.17c0.08,1.26,0.19,2.52,0.47,3.7
		C58.59,54.903,58.3,57.414,57.55,59.593z"/>
	<path d="M76.34,70.673c-2.05,0-3.01,3.26-4.09,6.94c-0.3,1.03-3.41,5.17-6.53,6.45c3.09-2.19,5.55-6,6.03-9.35
		c0.18-1.23,0.03-2.92-0.35-4.68c-0.56,2.65-2.59,5.03-5.6,6.85c-0.56,2.86-1.57,5.42-2.92,7.5c-3.43-0.26-6.48-1.75-8.65-3.99
		c-0.11-0.12-0.22-0.24-0.33-0.36c-1.88-2.09-3-4.77-3-7.71c0-2.38,0.65-4.58,1.82-6.43h0.01c0.57-0.91,1.26-1.72,2.07-2.44
		c0.44-0.39,0.92-0.76,1.43-1.08c0.12-0.08,0.24-0.16,0.37-0.23c1.88-1.11,4.14-1.75,6.67-1.75c0.09,0,0.19,0,0.28,0.01
		c0.42,0.01,0.83,0.06,1.22,0.15c1.42,0.28,2.66,0.92,3.63,1.55c0.01,0,0.01,0.01,0.01,0.01c0.77,0.49,1.38,0.97,1.75,1.25
		c0.22,0.14,0.55,0.58,0.95,1.19c1.38,2.09,3.57,6.12,5.15,6.12H76.34z"/>
	<path fill="#F5D76E" d="M55.75,70.454c0,3.52-0.67,6.8-1.85,9.58c-0.05,0.13-0.11,0.27-0.18,0.4c-0.81,0.06-1.63,0.09-2.47,0.09
		c-4.91,0-9.41-1.03-12.92-2.75c-1.54-2.36-2.25-5.06-1.86-7.8c0.18-1.22,0.55-2.36,1.11-3.42c0.88-1.68,2.2-3.14,3.84-4.32
		c0.96-0.68,2.02-1.27,3.17-1.74c0.1-0.04,0.2-0.08,0.31-0.12c0.52-0.2,1.06-0.39,1.6-0.54c0.28-0.08,0.56-0.16,0.84-0.22
		c0.28-0.07,0.56-0.13,0.85-0.18c0.12-0.03,0.24-0.05,0.36-0.06c0.21-0.04,0.41-0.07,0.63-0.1c0.29-0.04,0.6-0.08,0.9-0.11
		c0.56-0.05,1.12-0.08,1.69-0.08c0.43,0,0.86,0.01,1.3,0.03c0.51,0.95,0.96,1.98,1.33,3.08c0.15,0.41,0.29,0.83,0.4,1.26
		c0.07,0.21,0.13,0.42,0.18,0.64c0.05,0.21,0.1,0.42,0.15,0.64C55.53,66.534,55.75,68.454,55.75,70.454z"/>
	<path fill="#F5D76E" d="M71.4,70.034c-0.56,2.65-2.59,5.03-5.6,6.85c0.31-1.6,0.48-3.3,0.48-5.05c0-3.27-0.58-6.34-1.6-8.98
		c-0.33-0.87-0.71-1.69-1.13-2.45c-0.03-0.06-0.06-0.11-0.09-0.17c0.45,0.09,0.89,0.19,1.31,0.32c1.52,0.43,2.82,1.11,3.73,2.28
		c0.25,0.31,0.49,0.68,0.72,1.09C70.15,65.554,70.95,67.843,71.4,70.034z"/>
	<path fill="#DCBE5B" d="M53.72,80.434c-0.83,1.9-1.91,3.54-3.16,4.85c-2.13-0.37-4.12-1.04-5.88-1.95
		c-0.88-0.45-1.71-0.96-2.47-1.52c-0.42-0.31-0.82-0.63-1.19-0.96c-0.39-0.34-0.76-0.69-1.1-1.06c-0.6-0.64-1.13-1.32-1.59-2.02
		c3.51,1.72,8.01,2.75,12.92,2.75C52.09,80.523,52.91,80.494,53.72,80.434z"/>
	<path fill="#DCBE5B" d="M71.75,74.713c-0.48,3.35-2.94,7.16-6.03,9.35c0,0,0,0-0.01,0c-0.47,0.34-0.96,0.64-1.46,0.89
		c-0.68,0.35-1.46,0.59-2.32,0.75c0.33-0.41,0.65-0.86,0.95-1.32c1.35-2.08,2.36-4.64,2.92-7.5c3.01-1.82,5.04-4.2,5.6-6.85
		C71.78,71.793,71.93,73.483,71.75,74.713z"/>
	<path d="M48.125,71.021c0,2.434-0.632,5.718-2,7.312c-1.369,1.595-3.474,1.5-5.562,1.5c-4.177,0-7.562-3.945-7.562-8.812
		s3.386-8.812,7.562-8.812c2.088,0,4.944,0.28,6.312,1.875C48.243,65.678,48.125,68.587,48.125,71.021z"/>
	<path d="M66.28,71.833c0,5.57-1.69,10.55-4.35,13.87c-3.2,0.63-7.41,0.15-10.75-0.32c-0.21-0.03-0.42-0.06-0.62-0.1
		c3.14-3.28,5.19-8.7,5.19-14.83c0-2-0.22-3.92-0.62-5.72c-0.05-0.22-0.1-0.43-0.15-0.64c-0.46-1.82-1.12-3.5-1.91-4.98
		c0.61,0.04,1.22,0.1,1.84,0.19c0.27,0.04,0.54,0.07,0.82,0.1c0.6,0.08,1.21,0.13,1.82,0.19c2.05,0.17,4.09,0.28,5.91,0.64
		c0.44,0.79,0.84,1.64,1.19,2.54c0.09,0.22,0.17,0.44,0.25,0.67C65.78,65.954,66.28,68.813,66.28,71.833z"/>
	<g>
		<g>
			<path d="M38.33,64.863c0.191-2.974-1.697-5.67-4.569-6.445c-2.786-0.751-5.973,0.673-6.966,3.387
				c-0.397,1.087,2.528,0.728,2.91-0.316c0.633-1.73,2.218-1.654,3.59-0.824c1.426,0.862,2.228,2.92,2.125,4.516
				C35.336,66.48,38.261,65.941,38.33,64.863L38.33,64.863z"/>
		</g>
	</g>
	<g>
		<g>
			<path d="M42.51,63.773c0.213-2.145,0.602-5.273,2.871-6.232c0.333-0.141,1.238-0.673,0.778-1.146
				c-0.449-0.46-1.414-0.231-1.916-0.019c-3.271,1.383-4.301,4.463-4.629,7.768C39.5,65.295,42.415,64.735,42.51,63.773
				L42.51,63.773z"/>
		</g>
	</g>
	<g display="none">
		<g display="inline">
			<path d="M46.739,83.597c0.651,1.549,2.156,3.596,1.077,5.246c-0.397,0.608,0.339,1.04,0.848,1.083
				c0.717,0.061,1.497-0.24,1.896-0.852c1.367-2.091-0.091-4.275-0.923-6.254C49.135,81.627,46.268,82.477,46.739,83.597
				L46.739,83.597z"/>
		</g>
	</g>
	<g display="none">
		<g display="inline">
			<path d="M55.364,84.409c0.553,1.505,2.403,3.566,0.888,5.035c-0.472,0.458,0.416,0.491,0.683,0.469
				c0.623-0.053,1.472-0.237,1.939-0.69c1.856-1.8,0.086-3.691-0.612-5.59C58.009,82.948,55.155,83.842,55.364,84.409L55.364,84.409
				z"/>
		</g>
	</g>
	<path display="none" d="M42.21,81.813c-0.11,0.02-0.21,0.03-0.31,0.03c-0.01,0-0.01,0-0.02,0c0.01-0.01,0.02-0.01,0.03-0.02
		c0.13-0.08-0.29,0.03-0.03,0.02c-0.13,0.07-0.25,0.16-0.36,0.26c-0.23,0.21-0.44,0.47-0.62,0.72c-0.41,0.57-0.76,1.18-1.13,1.78
		c-0.42,0.68-3.28,1.1-2.66,0.08c0.62-1.02,1.2-2.09,2.14-2.86c0.53-0.44,1.13-0.76,1.77-0.97
		C41.39,81.184,41.79,81.503,42.21,81.813z"/>
	<path display="none" d="M41.91,81.824c-0.01,0.01-0.02,0.01-0.03,0.02C41.62,81.854,42.04,81.744,41.91,81.824z"/>
	<g display="none">
		<g display="inline">
			<path d="M62.644,84.11c1.298,1.073,1.582,2.496,1.595,4.112c0.005,0.674,2.905,0.187,2.897-0.776
				c-0.014-1.731-0.399-3.246-1.78-4.388C64.672,82.491,62.037,83.608,62.644,84.11L62.644,84.11z"/>
		</g>
	</g>
	<path fill="#B8D5E4" d="M70.94,55.753c-0.94,3.44-3.45,6.12-6.04,7.69c-0.45,0.27-0.91,0.51-1.36,0.72
		c-1.69,0.77-3.31,1.05-4.46,0.73c-1.19-0.33-2.1-1.33-2.69-2.78c-0.32-0.78-0.54-1.7-0.66-2.71c-0.28-2.17-0.08-4.79,0.66-7.49
		c0.3-1.1,0.69-2.17,1.14-3.17c0.92-2.06,2.11-3.85,3.39-5.19c1.64-1.73,3.43-2.7,4.96-2.47C80.02,43.144,72.66,49.454,70.94,55.753
		z"/>
	<path fill="#A7C0C9" d="M56.39,51.914c-0.74,2.7-0.94,5.32-0.66,7.49c-0.28-0.03-0.55-0.06-0.82-0.1
		c-0.62-0.09-1.23-0.15-1.84-0.19c-0.44-0.02-0.87-0.03-1.3-0.03c-0.38-1.34-0.59-2.81-0.59-4.35c0-5.31,2.44-9.77,5.76-11.11
		c0.42,1.45,0.47,3.27,0.59,5.12C57.08,49.744,56.69,50.813,56.39,51.914z"/>
	<path d="M279.16,155.843c-1.66,0.15-3.32,0.26-4.93,0.33l0.08,2c1.65-0.07,3.34-0.18,5.04-0.34L279.16,155.843z M257.55,154.994
		l-0.41,1.96c1.6,0.33,3.29,0.61,5.03,0.81l0.23-1.979C260.73,155.583,259.09,155.314,257.55,154.994z M295.77,153.003
		c-1.61,0.39-3.24,0.76-4.85,1.08l0.4,1.96c1.64-0.33,3.29-0.7,4.92-1.1L295.77,153.003z M242.59,148.374l-1.26,1.55
		c1.3,1.061,2.74,2.03,4.28,2.891l0.98-1.75C245.14,150.263,243.8,149.353,242.59,148.374z M311.82,147.874
		c-1.5,0.6-3.061,1.19-4.65,1.75l0.67,1.88c1.61-0.57,3.2-1.16,4.72-1.77L311.82,147.874z M326.65,140.114
		c-0.2,0.149-0.4,0.29-0.61,0.42c-1.07,0.74-2.26,1.49-3.53,2.22l1,1.73c1.311-0.761,2.54-1.53,3.66-2.301
		c0.21-0.14,0.42-0.279,0.63-0.43L326.65,140.114z M234.18,134.734l-1.94,0.46c0.4,1.72,0.95,3.37,1.62,4.909l1.83-0.8
		C235.07,137.874,234.56,136.333,234.18,134.734z M338.98,128.793c-1.101,1.24-2.24,2.46-3.381,3.61l1.42,1.41
		c1.171-1.181,2.33-2.431,3.461-3.7L338.98,128.793z M232.31,117.904c-0.4,1.689-0.68,3.39-0.84,5.05l1.99,0.2
		c0.15-1.58,0.42-3.2,0.79-4.801L232.31,117.904z M348.78,115.183c-0.78,1.391-1.65,2.811-2.58,4.21l1.67,1.101
		c0.95-1.44,1.84-2.891,2.649-4.32L348.78,115.183z M354.15,101.204c-0.11,0.56-0.221,1.12-0.341,1.66
		c-0.119,0.51-0.25,1.03-0.39,1.55l1.93,0.53c0.131-0.47,0.24-0.92,0.351-1.38C355.11,102.824,354.6,102.034,354.15,101.204z
		 M517.57,93.494c-1.67,0.02-3.33,0.03-5,0.04l0.01,2c1.67-0.01,3.34-0.02,5.01-0.04L517.57,93.494z M495.59,93.434l-0.04,2
		c1.66,0.03,3.33,0.05,5.01,0.07l0.021-2C498.91,93.483,497.25,93.463,495.59,93.434z M534.56,93.204c-1.649,0.04-3.319,0.08-5,0.11
		l0.04,2c1.681-0.03,3.351-0.07,5-0.11L534.56,93.204z M551.55,92.773l-5,0.13l0.061,2l5-0.13L551.55,92.773z M568.57,92.374
		c-1.59,0.03-3.261,0.06-5.011,0.1l0.04,2c1.75-0.04,3.41-0.07,5-0.1L568.57,92.374z M461.79,91.213l-0.271,1.98
		c1.57,0.22,3.25,0.42,4.99,0.61l0.221-1.99C465.01,91.633,463.35,91.423,461.79,91.213z M433.6,83.124
		c-1.35-0.55-2.68-1.12-3.96-1.68l-0.81,1.83c1.5,0.66,3.06,1.32,4.64,1.95l0.45-1.12l0.3-0.73
		C434.01,83.293,433.81,83.204,433.6,83.124z M121.24,80.914l-0.22,1.99c1.66,0.18,3.33,0.35,5,0.5l0.18-1.99
		C124.54,81.264,122.89,81.104,121.24,80.914z M262.24,76.883c-0.27,0.21-0.53,0.43-0.8,0.66c0.45,0.5,0.86,1.01,1.23,1.56
		c0.27-0.22,0.55-0.44,0.82-0.66L262.24,76.883z M104.5,78.414l-0.36,1.97c1.64,0.3,3.29,0.58,4.95,0.85l0.32-1.97
		C107.76,78.994,106.12,78.713,104.5,78.414z M175.98,76.023c-1.16,0.45-2.31,0.87-3.43,1.26c-0.19,0.67-0.44,1.29-0.75,1.87
		l0.15,0.45c1.54-0.51,3.14-1.09,4.76-1.72L175.98,76.023z M87.89,75.023l-0.44,1.95c1.61,0.36,3.24,0.72,4.89,1.08l0.42-1.96
		C91.11,75.744,89.49,75.383,87.89,75.023z M414.63,73.764l-1.02,1.72c1.409,0.83,2.88,1.67,4.38,2.48l0.95-1.75
		C417.47,75.414,416.02,74.583,414.63,73.764z M191.32,68.954c-1.47,0.76-2.95,1.51-4.44,2.24l0.87,1.8c1.51-0.74,3-1.49,4.49-2.26
		L191.32,68.954z M276.23,67.014c-1.16,0.71-2.33,1.45-3.49,2.21l-0.75,0.51l1.11,1.66l0.74-0.5c1.14-0.75,2.29-1.48,3.43-2.18
		L276.23,67.014z M355.64,65.764l-1.96,0.39c0.311,1.59,0.59,3.23,0.83,4.88l1.98-0.29C356.25,69.063,355.96,67.383,355.64,65.764z
		 M400.87,64.063l-1.271,1.54c1.24,1.03,2.58,2.12,3.92,3.16l1.221-1.58C403.42,66.164,402.1,65.083,400.87,64.063z M206.23,60.843
		l-4.37,2.43l0.97,1.75l4.37-2.43L206.23,60.843z M291.43,59.104c-1.54,0.67-3.08,1.38-4.59,2.11l0.87,1.8
		c1.49-0.72,3-1.42,4.51-2.07L291.43,59.104z M386.81,54.153l-0.85,1.81c1.38,0.65,2.771,1.43,4.23,2.39l1.09-1.68
		C389.74,55.673,388.28,54.843,386.81,54.153z M307.56,53.383c-1.609,0.45-3.229,0.94-4.819,1.46l0.61,1.9
		c1.57-0.51,3.16-0.99,4.75-1.44L307.56,53.383z M221.05,52.534c-1.45,0.82-2.89,1.65-4.34,2.47l0.98,1.74
		c1.46-0.82,2.91-1.65,4.35-2.48L221.05,52.534z M350.31,49.394l-1.79,0.89c0.69,1.4,1.351,2.91,1.95,4.49l1.87-0.71
		C351.72,52.423,351.04,50.854,350.31,49.394z M324.27,49.753c-1.659,0.26-3.329,0.55-4.949,0.86l0.37,1.97
		c1.6-0.31,3.25-0.6,4.89-0.85L324.27,49.753z M370.42,48.963l-0.41,1.96c1.49,0.32,3.061,0.71,4.771,1.2l0.55-1.93
		C373.57,49.693,371.96,49.293,370.42,48.963z M341.27,47.974c-1.689,0.1-3.38,0.22-5.02,0.35l0.17,2c1.62-0.14,3.29-0.26,4.96-0.35
		L341.27,47.974z M353.35,47.664h-0.029l0.029,2c1.801,0,3.42,0.01,4.94,0.04l0.04-2C356.8,47.673,355.16,47.664,353.35,47.664z
		 M235.7,43.954c-1.42,0.86-2.86,1.71-4.29,2.55l1.02,1.73c1.43-0.85,2.87-1.7,4.3-2.56L235.7,43.954z M340.2,35.414l-1.431,1.4
		c1.141,1.16,2.24,2.4,3.271,3.66l1.55-1.27C342.52,37.894,341.38,36.624,340.2,35.414z M250.2,35.113
		c-1.41,0.88-2.83,1.76-4.25,2.63l1.05,1.7c1.42-0.87,2.84-1.75,4.26-2.63L250.2,35.113z M264.88,26.374
		c-1.48,0.74-2.98,1.55-4.45,2.4l1,1.73c1.44-0.83,2.9-1.62,4.34-2.34L264.88,26.374z M326.47,25.014l-0.95,1.76
		c1.44,0.78,2.851,1.63,4.2,2.53l1.11-1.67C329.43,26.704,327.96,25.824,326.47,25.014z M281.01,20.454
		c-1.63,0.39-3.28,0.85-4.88,1.35l0.6,1.91c1.56-0.49,3.16-0.93,4.75-1.31L281.01,20.454z M310.21,19.284l-0.37,1.97
		c1.61,0.3,3.21,0.67,4.78,1.11l0.55-1.92C313.54,19.983,311.87,19.593,310.21,19.284z M298.06,18.354c-1.7,0.04-3.4,0.12-5.05,0.24
		l0.16,2c1.6-0.13,3.26-0.2,4.93-0.24L298.06,18.354z"/>
	<path d="M262.67,79.104c-1.01,0.83-2.02,1.68-2.99,2.52l-1.31-1.51c1-0.86,2.03-1.73,3.07-2.57
		C261.89,78.043,262.3,78.554,262.67,79.104z"/>
	<path d="M251.09,89.854c-1.15,1.22-2.26,2.47-3.3,3.69l-1.53-1.29c1.07-1.25,2.2-2.52,3.37-3.77L251.09,89.854z"/>
	<path d="M240.79,103.093c-0.88,1.43-1.7,2.87-2.43,4.28l-1.78-0.91c0.75-1.46,1.6-2.95,2.51-4.42L240.79,103.093z"/>
</g>
</svg>
