<?xml version="1.0" encoding="utf-8"?>
<!-- Generator: Adobe Illustrator 16.0.0, SVG Export Plug-In . SVG Version: 6.00 Build 0)  -->
<!DOCTYPE svg PUBLIC "-//W3C//DTD SVG 1.1//EN" "http://www.w3.org/Graphics/SVG/1.1/DTD/svg11.dtd">
<svg version="1.1" id="Layer_1" xmlns="http://www.w3.org/2000/svg" xmlns:xlink="http://www.w3.org/1999/xlink" x="0px" y="0px"
	 width="187.413px" height="109.897px" viewBox="0 0 187.413 109.897" enable-background="new 0 0 187.413 109.897"
	 xml:space="preserve">
<polygon fill="#F5D76E" stroke="#DBBD5A" stroke-width="12" stroke-miterlimit="10" points="-31.725,-54.948 0,0 -31.725,54.948 
	-95.173,54.948 -126.898,0 -95.173,-54.948 "/>
<polygon fill="#F5D76E" stroke="#DBBD5A" stroke-width="12" stroke-miterlimit="10" points="63.275,0 95,54.949 63.275,109.896 
	-0.173,109.896 -31.897,54.949 -0.173,0 "/>
<polygon fill="#F5D76E" stroke="#DBBD5A" stroke-width="12" stroke-miterlimit="10" points="-31.725,54.948 0,109.897 
	-31.725,164.844 -95.173,164.844 -126.897,109.897 -95.173,54.948 "/>
<polygon fill="#F5D76E" stroke="#DBBD5A" stroke-width="12" stroke-miterlimit="10" points="63.275,109.897 95,164.846 
	63.275,219.793 -0.173,219.793 -31.897,164.846 -0.173,109.897 "/>
<polygon fill="#F5D76E" stroke="#DBBD5A" stroke-width="12" stroke-miterlimit="10" points="63.275,-109.896 95,-54.948 63.275,0 
	-0.173,0 -31.897,-54.948 -0.173,-109.896 "/>
<polygon fill="#F5D76E" stroke="#DBBD5A" stroke-width="12" stroke-miterlimit="10" points="158.275,-54.948 190,0 158.275,54.948 
	94.827,54.948 63.103,0 94.827,-54.948 "/>
<polygon fill="#F5D76E" stroke="#DBBD5A" stroke-width="12" stroke-miterlimit="10" points="253.275,0 285,54.949 253.275,109.896 
	189.827,109.896 158.103,54.949 189.827,0 "/>
<polygon fill="#F5D76E" stroke="#DBBD5A" stroke-width="12" stroke-miterlimit="10" points="158.275,54.948 190,109.897 
	158.275,164.844 94.827,164.844 63.103,109.897 94.827,54.948 "/>
<polygon fill="#F5D76E" stroke="#DBBD5A" stroke-width="12" stroke-miterlimit="10" points="253.275,109.897 285,164.846 
	253.275,219.793 189.827,219.793 158.103,164.846 189.827,109.897 "/>
<polygon fill="#F5D76E" stroke="#DBBD5A" stroke-width="12" stroke-miterlimit="10" points="253.275,-109.896 285,-54.948 
	253.275,0 189.827,0 158.103,-54.948 189.827,-109.896 "/>
</svg>
